<?xml version="1.0" encoding="utf-8"?>
<!-- Svg Vector Icons : http://www.onlinewebfonts.com/icon -->
<!DOCTYPE svg PUBLIC "-//W3C//DTD SVG 1.1//EN" "http://www.w3.org/Graphics/SVG/1.1/DTD/svg11.dtd">
<svg version="1.1" xmlns="http://www.w3.org/2000/svg" xmlns:xlink="http://www.w3.org/1999/xlink" x="0px" y="0px" viewBox="0 0 1000 1000" enable-background="new 0 0 1000 1000" xml:space="preserve">
<metadata> Svg Vector Icons : http://www.onlinewebfonts.com/icon </metadata>
<g><path d="M500,598.9c84.3,0,149.5-35.3,195.5-105.8c0-29.2-22.6-53.3-67.9-72.5c-45.2-19.2-87.8-28.8-127.7-28.8c-39.9,0-82.5,9.6-127.7,28.8c-45.3,19.2-67.9,43.3-67.9,72.5C350.4,563.7,415.6,598.9,500,598.9L500,598.9z M500,106.6c-26.1,0-49.1,10-69,29.9c-19.9,19.9-29.9,42.9-29.9,69c0,27.6,10,51,29.9,70.2c19.9,19.2,42.9,28.8,69,28.8c26.1,0,49.1-9.6,69-28.8c19.9-19.2,29.9-42.6,29.9-70.2c0-26.1-10-49.1-29.9-69C549.1,116.5,526.1,106.6,500,106.6z M500,10c95.1,0,176,33.4,242.7,100.1c66.7,66.7,100.1,147.6,100.1,242.7c0,47.5-11.9,102-35.7,163.3c-23.8,61.3-52.5,118.9-86.3,172.6c-33.7,53.7-67.1,103.9-100.1,150.7c-33,46.8-61,83.9-84,111.6L500,990c-9.2-10.7-21.5-24.9-36.8-42.6c-15.3-17.6-43-52.9-82.8-105.8c-39.9-52.9-74.8-104.3-104.7-154.2S218.5,581.3,194,518.4c-24.5-62.9-36.8-118.1-36.8-165.6c0-95.1,33.4-176,100.1-242.7C324,43.4,404.9,10,500,10L500,10z"/></g>
</svg>